/* XPM */
static char * bitcoin32_xpm[] = {
"32 30 571 2",
"  	c None",
". 	c #91CDC1",
"+ 	c #58B8AB",
"@ 	c #19AB99",
"# 	c #19AC96",
"$ 	c #38B295",
"% 	c #55B894",
"& 	c #68BF92",
"* 	c #7CC794",
"= 	c #98D2A5",
"- 	c #9AD5B8",
"; 	c #B1D9D0",
"> 	c #8FCAC2",
", 	c #6CBCB1",
"' 	c #5DBDA6",
") 	c #53BC9B",
"! 	c #50B596",
"~ 	c #38AA90",
"{ 	c #3EA98C",
"] 	c #58B08B",
"^ 	c #76BF90",
"/ 	c #90CBA5",
"( 	c #C4E2CB",
"_ 	c #EDF7EC",
": 	c #E8F5F2",
"< 	c #BBDED7",
"[ 	c #9BCEC6",
"} 	c #7EC3AE",
"| 	c #61B793",
"1 	c #3FA380",
"2 	c #19937B",
"3 	c #1DA087",
"4 	c #29A88E",
"5 	c #39AC8F",
"6 	c #49AF8D",
"7 	c #52AE88",
"8 	c #59AC81",
"9 	c #70B88C",
"0 	c #AAD5BF",
"a 	c #D1E6E3",
"b 	c #ADD5C7",
"c 	c #DFEFEA",
"d 	c #C7E4DE",
"e 	c #98CFC4",
"f 	c #4BB399",
"g 	c #239B7F",
"h 	c #0F9783",
"i 	c #11A795",
"j 	c #1BAF9A",
"k 	c #26B199",
"l 	c #36B498",
"m 	c #47B698",
"n 	c #57B997",
"o 	c #61BD96",
"p 	c #6AC194",
"q 	c #77C493",
"r 	c #72BA86",
"s 	c #80C193",
"t 	c #81C897",
"u 	c #66AD9B",
"v 	c #5DBAAD",
"w 	c #E5F2ED",
"x 	c #D3E9E5",
"y 	c #83CABC",
"z 	c #20A089",
"A 	c #109781",
"B 	c #11A592",
"C 	c #14AC9A",
"D 	c #18AE9A",
"E 	c #20AF98",
"F 	c #2FB298",
"G 	c #40B597",
"H 	c #50B897",
"I 	c #59B992",
"J 	c #79C49F",
"K 	c #A0D6B5",
"L 	c #99CBA7",
"M 	c #8CC29A",
"N 	c #82C897",
"O 	c #75C095",
"P 	c #5AAE93",
"Q 	c #3EB4A4",
"R 	c #23AE9A",
"S 	c #DDEEEB",
"T 	c #8ECEC1",
"U 	c #189A84",
"V 	c #119E8A",
"W 	c #14AA98",
"X 	c #14AB9A",
"Y 	c #16AC99",
"Z 	c #1CAF98",
"` 	c #29B198",
" .	c #37B398",
"..	c #44B293",
"+.	c #64BC94",
"@.	c #85CBA8",
"#.	c #7EC1A0",
"$.	c #78B58B",
"%.	c #6FB686",
"&.	c #72BA89",
"*.	c #6FC293",
"=.	c #6FB994",
"-.	c #2FAA8F",
";.	c #3FB79C",
">.	c #1AAD98",
",.	c #45B395",
"'.	c #E6F3F1",
").	c #B8DCD4",
"!.	c #18A08A",
"~.	c #109C87",
"{.	c #14AB99",
"].	c #19AD99",
"^.	c #23AF98",
"/.	c #30B196",
"(.	c #57B796",
"_.	c #7BC696",
":.	c #60B288",
"<.	c #429C75",
"[.	c #65B382",
"}.	c #76C48E",
"|.	c #78C18F",
"1.	c #89CD9E",
"2.	c #62BE94",
"3.	c #5CB08E",
"4.	c #1DAA94",
"5.	c #23B199",
"6.	c #52BC9D",
"7.	c #49B696",
"8.	c #E2F2EE",
"9.	c #D8EAE6",
"0.	c #3CB09B",
"a.	c #0B9580",
"b.	c #1FAE98",
"c.	c #4EBAA2",
"d.	c #88CAAE",
"e.	c #74BB97",
"f.	c #49A179",
"g.	c #5CAF87",
"h.	c #6CBD8E",
"i.	c #78C793",
"j.	c #7FC494",
"k.	c #95D0A2",
"l.	c #6DC194",
"m.	c #5DBD99",
"n.	c #38A286",
"o.	c #1AAA96",
"p.	c #2FB198",
"q.	c #5CBD9D",
"r.	c #67C09A",
"s.	c #6ABE8E",
"t.	c #EBF4F3",
"u.	c #8BCEBE",
"v.	c #08957F",
"w.	c #14A592",
"x.	c #15AC99",
"y.	c #1AAC98",
"z.	c #7ACDBB",
"A.	c #85CAB6",
"B.	c #3FA385",
"C.	c #46A986",
"D.	c #5CBB92",
"E.	c #93CEAF",
"F.	c #63AF7E",
"G.	c #8FCDA0",
"H.	c #89C497",
"I.	c #75C392",
"J.	c #60BC96",
"K.	c #59BA9A",
"L.	c #30A58B",
"M.	c #22AE96",
"N.	c #3FB597",
"O.	c #60BD98",
"P.	c #78C59B",
"Q.	c #79C792",
"R.	c #C7E8E2",
"S.	c #DBEBE6",
"T.	c #2FAD99",
"U.	c #109681",
"V.	c #14AC9B",
"W.	c #16AC98",
"X.	c #5EC2B1",
"Y.	c #87CCBD",
"Z.	c #339D7F",
"`.	c #4BB390",
" +	c #5CBB97",
".+	c #5DBA8E",
"++	c #C3E2D0",
"@+	c #9FCCAB",
"#+	c #7ABA8C",
"$+	c #71BC89",
"%+	c #69BF94",
"&+	c #52B997",
"*+	c #3CAE91",
"=+	c #2DA78D",
"-+	c #33B298",
";+	c #51B897",
">+	c #65BE94",
",+	c #88CC9D",
"'+	c #7CC892",
")+	c #DCEEEC",
"!+	c #A6D5C7",
"~+	c #1A9A85",
"{+	c #13A794",
"]+	c #27B19C",
"^+	c #9CD6CA",
"/+	c #40A38A",
"(+	c #53B390",
"_+	c #51B18E",
":+	c #62BE96",
"<+	c #72C095",
"[+	c #CFECE0",
"}+	c #5AAA82",
"|+	c #7ABD8D",
"1+	c #74C695",
"2+	c #5FBD96",
"3+	c #42B698",
"4+	c #42B094",
"5+	c #2BA88D",
"6+	c #45B697",
"7+	c #5EBC96",
"8+	c #71C293",
"9+	c #8ACC9A",
"0+	c #7AC793",
"a+	c #74C493",
"b+	c #DBEBE9",
"c+	c #76C7B9",
"d+	c #13927C",
"e+	c #15AB99",
"f+	c #18AD99",
"g+	c #35B19C",
"h+	c #9DD0C0",
"i+	c #2EA486",
"j+	c #63B98F",
"k+	c #81C8A4",
"l+	c #B0D8C3",
"m+	c #4CA27A",
"n+	c #61B792",
"o+	c #65B88A",
"p+	c #4DB897",
"q+	c #2EB198",
"r+	c #3EA88A",
"s+	c #33AE91",
"t+	c #55BA97",
"u+	c #69C094",
"v+	c #87CC98",
"w+	c #86CB9D",
"x+	c #6EC293",
"y+	c #C7E2DD",
"z+	c #5EBDAC",
"A+	c #149985",
"B+	c #1BAE97",
"C+	c #65C1AD",
"D+	c #66BCA5",
"E+	c #41AC8B",
"F+	c #6DBD91",
"G+	c #73B793",
"H+	c #B0D9BD",
"I+	c #96C6A6",
"J+	c #96CBA3",
"K+	c #7EC492",
"L+	c #59BA96",
"M+	c #37B397",
"N+	c #3BB499",
"O+	c #34A083",
"P+	c #4AB797",
"Q+	c #62BD96",
"R+	c #81C995",
"S+	c #8ACD99",
"T+	c #90CEA5",
"U+	c #67BF93",
"V+	c #B4D9D3",
"W+	c #51B5A3",
"X+	c #139F8A",
"Y+	c #1AAD99",
"Z+	c #21AF97",
"`+	c #70C3AA",
" @	c #54B296",
".@	c #4CB28F",
"+@	c #83C59E",
"@@	c #AED9BC",
"#@	c #9FC8AE",
"$@	c #C9E6CE",
"%@	c #99D3A6",
"&@	c #76C693",
"*@	c #62BD95",
"=@	c #47B697",
"-@	c #1EB099",
";@	c #4AA683",
">@	c #36AE91",
",@	c #59BB96",
"'@	c #6CC193",
")@	c #7CC893",
"!@	c #87CC97",
"~@	c #91CE9D",
"{@	c #8FCEA4",
"]@	c #61BD94",
"^@	c #A1D1C9",
"/@	c #4BB19E",
"(@	c #14A08B",
"_@	c #17AD99",
":@	c #1FAF98",
"<@	c #2BB198",
"[@	c #62BC9D",
"}@	c #56B293",
"|@	c #59B48D",
"1@	c #A2D5B5",
"2@	c #74B69A",
"3@	c #DFF0E1",
"4@	c #9BD3B0",
"5@	c #7AC595",
"6@	c #71C196",
"7@	c #53B996",
"8@	c #2FB299",
"9@	c #47B492",
"0@	c #289A7E",
"a@	c #4FB998",
"b@	c #65BE95",
"c@	c #76C692",
"d@	c #83CA96",
"e@	c #8CCD9B",
"f@	c #97D1A1",
"g@	c #8ECDA7",
"h@	c #5ABA95",
"i@	c #8EC9C0",
"j@	c #46B29F",
"k@	c #149E89",
"l@	c #15AC9A",
"m@	c #1BAE99",
"n@	c #26B198",
"o@	c #36B398",
"p@	c #4BB190",
"q@	c #60B88F",
"r@	c #83C5A3",
"s@	c #4BA681",
"t@	c #89C5AF",
"u@	c #7FC19E",
"v@	c #76BD8C",
"w@	c #71C392",
"x@	c #5DBC95",
"y@	c #40B698",
"z@	c #2FAE93",
"A@	c #2E9A7A",
"B@	c #42B496",
"C@	c #5DBC96",
"D@	c #7FC893",
"E@	c #87CC99",
"F@	c #92CF9E",
"G@	c #9FD4A5",
"H@	c #84CAA5",
"I@	c #52B896",
"J@	c #77C2B6",
"K@	c #41B09C",
"L@	c #139984",
"M@	c #19AE9A",
"N@	c #21AF99",
"O@	c #41B597",
"P@	c #4FB391",
"Q@	c #8BC99D",
"R@	c #5BB492",
"S@	c #A2CCB7",
"T@	c #C0DFC5",
"U@	c #A3D5AD",
"V@	c #7FC997",
"W@	c #67BF94",
"X@	c #4EB897",
"Y@	c #2CAE95",
"Z@	c #1F9980",
"`@	c #34AD90",
" #	c #54B997",
".#	c #68BF95",
"+#	c #79C793",
"@#	c #84CA97",
"##	c #8DCE9C",
"$#	c #97D1A2",
"%#	c #A9D7AB",
"&#	c #65BE9B",
"*#	c #49B798",
"=#	c #52B8A9",
"-#	c #29AC97",
";#	c #159D88",
">#	c #1CAD97",
",#	c #39B497",
"'#	c #4BB797",
")#	c #5ABA96",
"!#	c #82C8A4",
"~#	c #7ABBA1",
"{#	c #DBECDF",
"]#	c #B5DEBE",
"^#	c #8ACD9D",
"/#	c #4EB794",
"(#	c #1F947A",
"_#	c #27A88F",
":#	c #48B697",
"<#	c #60BD95",
"[#	c #72C492",
"}#	c #80C994",
"|#	c #93CF9F",
"1#	c #9DD3A6",
"2#	c #A7D7AE",
"3#	c #55BA99",
"4#	c #3DB497",
"5#	c #1BAD99",
"6#	c #29A58A",
"7#	c #1FA890",
"8#	c #33B398",
"9#	c #45B597",
"0#	c #53B997",
"a#	c #62BC96",
"b#	c #79C0A0",
"c#	c #8DCAB5",
"d#	c #B2DBC1",
"e#	c #8CCBA3",
"f#	c #6CBF90",
"g#	c #5BB790",
"h#	c #46A781",
"i#	c #19967C",
"j#	c #1EAB95",
"k#	c #3CB598",
"l#	c #58BA97",
"m#	c #6AC093",
"n#	c #7CC793",
"o#	c #85CB98",
"p#	c #8FCE9D",
"q#	c #99D2A2",
"r#	c #A6D6AA",
"s#	c #87CCA6",
"t#	c #3EB092",
"u#	c #28A48A",
"v#	c #3CB497",
"w#	c #4EB797",
"x#	c #5ABB95",
"y#	c #76C19D",
"z#	c #7CC3A8",
"A#	c #5AAD78",
"B#	c #59B07F",
"C#	c #4EAD84",
"D#	c #48A784",
"E#	c #3EA586",
"F#	c #20AA92",
"G#	c #30B298",
"H#	c #4DB797",
"I#	c #63BE95",
"J#	c #75C592",
"K#	c #82CA95",
"L#	c #8BCD9B",
"M#	c #95D0A1",
"N#	c #9FD3A6",
"O#	c #A6D7AD",
"P#	c #62C09F",
"Q#	c #26AD94",
"R#	c #4FB896",
"S#	c #54B28E",
"T#	c #3EAE91",
"U#	c #55B997",
"V#	c #5EBB93",
"W#	c #9CCFB2",
"X#	c #5DB390",
"Y#	c #76C38D",
"Z#	c #74C593",
"`#	c #57BA97",
" $	c #35B498",
".$	c #19AE99",
"+$	c #24B098",
"@$	c #5BBB96",
"#$	c #7EC893",
"$$	c #87CB98",
"%$	c #91CE9E",
"&$	c #9BD2A4",
"*$	c #A5D5AA",
"=$	c #86CCA6",
"-$	c #36B397",
";$	c #4AB79A",
">$	c #6CC093",
",$	c #63B991",
"'$	c #5BB994",
")$	c #5DB98B",
"!$	c #D6ECE1",
"~$	c #45A778",
"{$	c #78C692",
"]$	c #5FBB96",
"^$	c #20AF99",
"/$	c #1CAE99",
"($	c #34B298",
"_$	c #67BF95",
":$	c #79C692",
"<$	c #8DCE9B",
"[$	c #96D1A2",
"}$	c #A1D5A8",
"|$	c #98D1A7",
"1$	c #46B697",
"2$	c #2BAE94",
"3$	c #79C794",
"4$	c #91CDA0",
"5$	c #81C7A1",
"6$	c #77C197",
"7$	c #A3DCD1",
"8$	c #5DAE78",
"9$	c #73C594",
"0$	c #65BF95",
"a$	c #51B996",
"b$	c #29B098",
"c$	c #5FBC96",
"d$	c #72C493",
"e$	c #7FC994",
"f$	c #89CC99",
"g$	c #9CD2A5",
"h$	c #92CFA2",
"i$	c #51B896",
"j$	c #35B196",
"k$	c #A6D6B1",
"l$	c #C4E4CA",
"m$	c #BDDEC6",
"n$	c #7DC3A8",
"o$	c #65B680",
"p$	c #6BC194",
"q$	c #5CBB96",
"r$	c #3FB598",
"s$	c #1DAE99",
"t$	c #39B498",
"u$	c #55B996",
"v$	c #85CB97",
"w$	c #91CF9D",
"x$	c #94CFA1",
"y$	c #7DC79D",
"z$	c #40B396",
"A$	c #5BBA94",
"B$	c #D4EBD9",
"C$	c #D4E9DB",
"D$	c #77BDA3",
"E$	c #9BD0B0",
"F$	c #67C097",
"G$	c #49B695",
"H$	c #24AF96",
"I$	c #17AD98",
"J$	c #2DB298",
"K$	c #4CB797",
"L$	c #83CA95",
"M$	c #6FC59C",
"N$	c #69C097",
"O$	c #46B293",
"P$	c #61BC91",
"Q$	c #A4CCC1",
"R$	c #A7D5CD",
"S$	c #A0D3C9",
"T$	c #71C6B5",
"U$	c #5AC5B6",
"V$	c #35B5A1",
"W$	c #58BA95",
"X$	c #6EC297",
"Y$	c #79C59B",
"Z$	c #6DC399",
"`$	c #5CBE94",
" %	c #6DC293",
".%	c #61BD95",
"+%	c #51B491",
"@%	c #67BAAD",
"#%	c #3DB2A2",
"$%	c #15AB98",
"%%	c #48BBA8",
"&%	c #6BC3AB",
"*%	c #76C4A6",
"=%	c #79C69C",
"-%	c #7AC792",
";%	c #77C590",
">%	c #6EC191",
",%	c #55B993",
"'%	c #21AA92",
")%	c #38B294",
"!%	c #52B693",
"~%	c #66BD91",
"{%	c #75C38F",
"                                                                ",
"                    . + @ # $ % & * = -                         ",
"                ; > , ' ) ! ~ { ] ^ / ( _ :                     ",
"              < [ } | 1 2 3 4 5 6 7 8 9 0 a b                   ",
"          c d e f g h i j k l m n o p q r s t u v               ",
"        w x y z A B C D E F G H I J K L M N O P Q R             ",
"        S T U V W X Y Z `  ...+.@.#.$.%.&.*.=.-.;.>.,.          ",
"      '.).!.~.{.{.{.].^./.(._.:.<.[.}.|.1.2.3.4.5.6.7.          ",
"    8.9.0.a.W {.{.Y b.c.d.e.f.g.h.i.j.k.l.m.n.o.p.q.r.s.        ",
"    t.u.v.w.C {.x.y.z.A.B.C.D.E.F.G.H.I.J.K.L.M.N.O.P.Q.        ",
"  R.S.T.U.V.{.{.W.X.Y.Z.`. +.+++@+#+$+%+&+*+=+-+;+>+,+'+        ",
"  )+!+~+{+{.{.Y ]+^+/+(+_+:+<+[+}+|+1+2+3+4+5+6+7+8+9+0+a+      ",
"  b+c+d+C {.e+f+g+h+i+j+7 k+l+m+n+o+>+p+q+r+s+t+u+0+v+w+x+      ",
"  y+z+A+C {.Y B+C+D+E+F+G+H+I+J+K+*.L+M+N+O+P+Q+a+R+S+T+U+      ",
"  V+W+X+C x.Y+Z+`+ @.@+@@@#@$@%@&@*@=@-@;@>@,@'@)@!@~@{@]@      ",
"  ^@/@(@C _@:@<@[@}@|@1@2@3@4@5@6@7@8@9@0@a@b@c@d@e@f@g@h@      ",
"  i@j@k@l@m@n@o@p@q@r@s@t@u@v@w@x@y@z@A@B@C@*.D@E@F@G@H@I@      ",
"  J@K@L@M@N@F O@P@Q@R@S@T@U@V@W@X@Y@Z@`@ #.#+#@###$#%#&#*#      ",
"  =#-#;#>#` ,#'#)#!#~#{#]#^#*.L+/#(#_#:#<#[#}#S+|#1#2#3#4#      ",
"    5#6#7#8#9#0#a#b#c#d#e#f#g#h#i#j#k#l#m#n#o#p#q#r#s#y@        ",
"    k t#u#v#w#x#y#z#A#B#C#D#E#F#M@G#H#I#J#K#L#M#N#O#P#Q#        ",
"      R#S#T#U#V#W#X#Y#Z#u+`# $.$+$O@@$x+#$$$%$&$*$=$-$;$        ",
"        >$,$'$)$!$~${$l.]$6+^$/$($;+_$:$d@<$[$}$|$1$2$          ",
"        3$4$5$6$7$8$9$0$a$F ].b$1$c$d$e$f$|#g$h$i$j$            ",
"          k$l$m$n$o$p$q$r$s$b.t$u$m#0+v$w$x$y$,@z$A$            ",
"            B$C$D$E$F$G$H$I$J$K$*@J#L$L#M$N$C@O$P$              ",
"                Q$R$S$T$U$V$4#W$X$Y$Z$`$ %.%+%                  ",
"                    @%#%$%%%&%*%=%-%;%>%,%                      ",
"                        '%)%!%~%}.{%                            ",
"                                                                "};
